<?xml version="1.0" encoding="utf-8"?>
<!-- Generator: Adobe Illustrator 15.0.1, SVG Export Plug-In . SVG Version: 6.00 Build 0)  -->
<!DOCTYPE svg PUBLIC "-//W3C//DTD SVG 1.1//EN" "http://www.w3.org/Graphics/SVG/1.1/DTD/svg11.dtd">
<svg version="1.1" id="Ebene_1" xmlns="http://www.w3.org/2000/svg" xmlns:xlink="http://www.w3.org/1999/xlink" x="0px" y="0px"
	 width="841.89px" height="245px" viewBox="0 0 841.89 245" enable-background="new 0 0 841.89 245" xml:space="preserve">
<g>
	<g>
		<path fill="#009CDD" d="M268.364,179.971v49.519h-43.929v-9.004h-3.407c-2.206,6.522-5.223,8.444-9.969,8.952
			c-2.581,0.223-11.73,0.287-24.271,0.306c-9.382,0.025-19.197,0-23.485-0.228c-5.16-0.281-9.337-3.975-9.707-8.721
			c-0.058-0.465-0.146-3.87-0.146-3.87c-0.138-6.816-0.23-21.68-0.23-38.901c0-17.232,0.092-32.08,0.23-38.9
			c0,0,0.11-3.585,0.135-3.869c0.34-4.756,4.52-8.55,9.718-8.77c3.065-0.253,23.086-0.441,47.336-0.441
			c25.217,0,45.858,0.201,47.606,0.478c4.796,0.408,8.608,3.856,9.195,8.217c0.286,1.832,0.815,17.256,0.871,38.019H257.55
			c-2.184,0-3.949,1.612-3.949,3.608c0,2.003,1.765,3.606,3.949,3.606H268.364z"/>
		<path fill="#009CDD" d="M145.348,126.73l-12.063,102.785H97.506c-7.362,0-11.418-1.067-14.183-10.261h-3.391
			c-2.761,9.197-6.824,10.261-14.186,10.261H29.385L17.343,126.73h54.299v10.428c0,2.175,1.765,3.947,3.932,3.947
			c2.193,0,3.958-1.772,3.958-3.947v-6.89h4.139v6.89c0,2.175,1.765,3.947,3.949,3.947c2.175,0,3.946-1.772,3.946-3.947V126.73
			H145.348z"/>
	</g>
	<polygon fill="#009CDD" points="262.312,62.955 262.312,115.744 161.363,115.744 161.363,62.955 150.742,62.955 150.742,12.935 
		273.395,12.935 273.395,62.955 	"/>
	<g>
		<path fill="#009CDD" d="M85.552,12.935v10.015c0,2.181-1.774,3.947-3.954,3.947c-2.184,0-3.945-1.767-3.945-3.947V12.935H18.847
			v102.78h58.807v-9.73c0-2.185,1.761-3.947,3.945-3.947c2.18,0,3.954,1.763,3.954,3.947v9.73h58.394V12.935H85.552z"/>
		<path fill="#009CDD" d="M337.321,216.081V193.86h-3.334v22.54c0,7.988-3.438,10.845-10.263,10.845
			c-8.145,0-9.946-4.499-9.946-9.792V193.86h-3.386v23.967c0,5.982,2.013,12.169,13.016,12.169
			C332.667,229.996,337.321,225.129,337.321,216.081"/>
		<path fill="#009CDD" d="M375.986,229.575V193.86H372.6v9.524c0,6.931,0.213,17.462,0.37,22.483
			c-1.374-2.485-2.858-5.021-4.39-7.455l-15.608-24.553h-4.602v35.715h3.386v-10.531c0-6.665-0.21-17.405-0.37-21.64
			c1.163,2.33,2.537,4.66,4.18,7.192l15.819,24.979H375.986z"/>
		<path fill="#009CDD" d="M412.107,211.636c0,10.582-6.562,15.294-16.086,15.294c-1.533,0-3.861-0.158-5.446-0.374v-29.939
			c1.533-0.057,4.125-0.163,6.186-0.163C406.813,196.453,412.107,201.48,412.107,211.636 M415.65,211.426
			c0-12.062-6.719-17.721-18.462-17.721c-3.496,0-7.251,0.158-10.003,0.158v35.707c2.328-0.052,4.816,0.163,8.36,0.163
			C407.239,229.733,415.65,223.701,415.65,211.426"/>
		<path fill="#009CDD" d="M460.841,194.917c-3.229-1.002-6.351-1.478-9.627-1.478c-11.691,0-18.786,8.147-18.786,18.939
			c0,11.164,7.095,17.617,17.569,17.617c3.6,0,7.882-0.636,11.477-1.956v-16.297h-3.384v14.233
			c-2.326,0.744-4.709,1.165-7.563,1.165c-8.574,0-14.499-5.453-14.499-15.347c0-10.578,7.095-15.553,14.761-15.553
			c3.122,0,6.454,0.688,9.524,1.904L460.841,194.917z"/>
	</g>
	<polygon fill="#009CDD" points="488.924,229.575 488.924,226.767 474.691,226.767 474.691,212.482 488.236,212.482 
		488.236,209.788 474.691,209.788 474.691,196.611 488.924,196.611 488.924,193.86 471.303,193.86 471.303,229.575 	"/>
	<g>
		<path fill="#009CDD" d="M516.58,219.415c0-11.164-16.98-8.041-16.98-16.666c0-3.914,2.963-6.507,8.411-6.507
			c2.12,0,4.446,0.369,6.454,1.002l0.215-3.174c-2.063-0.37-4.128-0.631-6.407-0.631c-7.615,0-12.108,4.123-12.108,9.679
			c0,11.115,16.925,7.938,16.925,16.772c0,5.187-4.124,7.143-8.939,7.143c-2.489,0-5.182-0.581-7.301-1.32l-0.211,3.385
			c1.961,0.58,4.497,0.898,7.193,0.898C511.717,229.996,516.58,225.657,516.58,219.415"/>
	</g>
	<polygon fill="#009CDD" points="544.409,196.668 544.409,193.86 518.906,193.86 518.906,196.668 529.97,196.668 529.97,229.575 
		533.354,229.575 533.354,196.668 	"/>
	<g>
		<path fill="#009CDD" d="M564.017,217.721h-14.499l5.606-15.235c0.637-1.694,1.165-3.332,1.643-5.026h0.052
			c0.481,1.798,0.903,3.384,1.591,5.135L564.017,217.721z M572.16,229.575l-13.381-35.715h-3.655l-13.438,35.715h3.548l3.328-9.104
			h16.46l3.225,9.104H572.16z"/>
	</g>
	<polygon fill="#009CDD" points="595.112,229.575 595.112,226.767 581.465,226.767 581.465,193.86 578.077,193.86 578.077,229.575 	
		"/>
	<polygon fill="#009CDD" points="617.266,196.668 617.266,193.86 591.759,193.86 591.759,196.668 602.822,196.668 602.822,229.575 
		606.206,229.575 606.206,196.668 	"/>
	<g>
		<path fill="#009CDD" d="M649.248,216.081V193.86h-3.333v22.54c0,7.988-3.436,10.845-10.264,10.845
			c-8.152,0-9.945-4.499-9.945-9.792V193.86h-3.384v23.967c0,5.982,2.013,12.169,13.012,12.169
			C644.596,229.996,649.248,225.129,649.248,216.081"/>
		<path fill="#009CDD" d="M687.913,229.575V193.86h-3.384v9.524c0,6.931,0.209,17.462,0.369,22.483
			c-1.371-2.485-2.859-5.021-4.391-7.455l-15.608-24.553h-4.601v35.715h3.384v-10.531c0-6.665-0.211-17.405-0.37-21.64
			c1.165,2.33,2.537,4.66,4.18,7.192l15.818,24.979H687.913z"/>
		<path fill="#009CDD" d="M723.928,194.917c-3.225-1.002-6.347-1.478-9.632-1.478c-11.687,0-18.78,8.147-18.78,18.939
			c0,11.164,7.094,17.617,17.568,17.617c3.595,0,7.881-0.636,11.479-1.956v-16.297h-3.387v14.233
			c-2.331,0.744-4.704,1.165-7.563,1.165c-8.574,0-14.5-5.453-14.5-15.347c0-10.578,7.091-15.553,14.761-15.553
			c3.123,0,6.458,0.688,9.524,1.904L723.928,194.917z"/>
	</g>
	<polygon fill="#009CDD" points="331.819,136.354 331.819,133.547 306.317,133.547 306.317,136.354 317.377,136.354 
		317.377,169.261 320.762,169.261 320.762,136.354 	"/>
	<polygon fill="#009CDD" points="354.968,169.261 354.968,166.453 340.738,166.453 340.738,152.174 354.282,152.174 
		354.282,149.472 340.738,149.472 340.738,136.298 354.968,136.298 354.968,133.547 337.351,133.547 337.351,169.261 	"/>
	<g>
		<path fill="#009CDD" d="M387.974,167.675l-0.371-3.02c-2.276,1.165-5.82,2.069-8.73,2.069c-9.097,0-13.333-5.562-13.333-15.137
			c0-8.354,3.648-15.5,12.803-15.5c2.911,0,5.716,0.425,8.785,1.427l0.37-3.173c-2.698-0.688-5.609-1.11-8.415-1.11
			c-12.218,0-17.193,8.305-17.193,18.938c0,10.9,5.293,17.514,15.979,17.514C381.73,169.683,385.17,168.887,387.974,167.675"/>
	</g>
	<polygon fill="#009CDD" points="423.631,169.261 423.631,133.547 420.244,133.547 420.244,149.313 399.822,149.313 
		399.822,133.547 396.438,133.547 396.438,169.261 399.822,169.261 399.822,152.117 420.244,152.117 420.244,169.261 	"/>
	<g>
		<path fill="#009CDD" d="M462.437,169.261v-35.714h-3.389v9.523c0,6.931,0.216,17.462,0.37,22.489
			c-1.372-2.49-2.854-5.027-4.386-7.462l-15.608-24.551h-4.601v35.714h3.384v-10.531c0-6.664-0.211-17.405-0.37-21.641
			c1.165,2.331,2.536,4.662,4.18,7.203l15.819,24.969H462.437z"/>
	</g>
	<rect x="473.638" y="133.547" fill="#009CDD" width="3.384" height="35.714"/>
	<polygon fill="#009CDD" points="512.517,169.261 495.48,150.844 511.988,133.547 507.705,133.547 491.62,150.844 491.62,133.547 
		488.236,133.547 488.236,169.261 491.62,169.261 491.62,151.166 507.705,169.261 	"/>
	<g>
		<path fill="#009CDD" d="M516.356,176.721c6.983-6.721,5.667-12.117,2.546-12.117c-1.754,0-2.863,2.013-1.698,3.544
			c0.902,1.22,0.902,3.762-2.378,7.254L516.356,176.721z"/>
		<path fill="#009CDD" d="M579.057,133.547h-3.336l-7.087,27.299c-0.477,1.699-0.847,3.28-1.165,5.083h-0.052
			c-0.369-1.961-0.902-4.073-1.432-5.874l-7.774-26.508h-4.23l-7.413,26.087c-0.581,2.007-1.058,4.175-1.479,6.295h-0.052
			c-0.422-2.224-0.848-4.18-1.54-6.613l-6.819-25.769h-3.655l9.684,35.714h4.282l7.624-27.032c0.529-1.911,1.002-3.652,1.269-5.401
			h0.052c0.37,1.591,0.791,3.438,1.38,5.345l7.882,27.089h4.283L579.057,133.547z"/>
	</g>
	<rect x="586.342" y="133.547" fill="#009CDD" width="3.388" height="35.714"/>
	<g>
		<path fill="#009CDD" d="M616.913,142.753c0,4.128-3.328,7.039-9.146,7.039c-1.698,0-2.808-0.057-3.439-0.108v-13.438
			c1.165-0.108,2.274-0.158,3.649-0.158C613.688,136.088,616.913,137.78,616.913,142.753 M622.684,169.261l-11.163-13.282
			c-0.954-1.16-2.167-2.537-3.225-3.702c6.824-0.103,12.164-3.543,12.164-10.104s-5.077-8.785-11.531-8.785
			c-3.755,0-5.818,0.057-7.994,0.16v35.714h3.394v-16.878h0.158l13.699,16.878H622.684z"/>
	</g>
	<polygon fill="#009CDD" points="649.39,136.354 649.39,133.547 623.888,133.547 623.888,136.354 634.946,136.354 634.946,169.261 
		638.335,169.261 638.335,136.354 	"/>
	<g>
		<path fill="#009CDD" d="M672.329,159.1c0-11.157-16.984-8.036-16.984-16.662c0-3.916,2.967-6.509,8.411-6.509
			c2.115,0,4.445,0.369,6.458,1.007l0.216-3.18c-2.069-0.369-4.133-0.631-6.407-0.631c-7.619,0-12.117,4.128-12.117,9.683
			c0,11.112,16.933,7.938,16.933,16.77c0,5.187-4.128,7.143-8.943,7.143c-2.485,0-5.182-0.581-7.302-1.32l-0.21,3.384
			c1.956,0.581,4.493,0.899,7.193,0.899C667.463,169.683,672.329,165.343,672.329,159.1"/>
		<path fill="#009CDD" d="M704.334,167.675l-0.371-3.02c-2.273,1.165-5.817,2.069-8.731,2.069c-9.095,0-13.331-5.562-13.331-15.137
			c0-8.354,3.646-15.5,12.807-15.5c2.906,0,5.709,0.425,8.78,1.427l0.369-3.173c-2.701-0.688-5.607-1.11-8.411-1.11
			c-12.22,0-17.195,8.305-17.195,18.938c0,10.9,5.293,17.514,15.979,17.514C698.091,169.683,701.529,168.887,704.334,167.675"/>
	</g>
	<polygon fill="#009CDD" points="739.992,169.261 739.992,133.547 736.604,133.547 736.604,149.313 716.179,149.313 
		716.179,133.547 712.8,133.547 712.8,169.261 716.179,169.261 716.179,152.117 736.604,152.117 736.604,169.261 	"/>
	<g>
		<path fill="#009CDD" d="M768.216,157.41h-14.499l5.612-15.238c0.631-1.694,1.16-3.333,1.638-5.022h0.052
			c0.481,1.797,0.902,3.385,1.591,5.131L768.216,157.41z M776.36,169.261l-13.381-35.714h-3.65l-13.438,35.714h3.542l3.333-9.103
			h16.456l3.225,9.103H776.36z"/>
	</g>
	<polygon fill="#009CDD" points="799.846,136.298 799.846,133.547 782.281,133.547 782.281,169.261 785.665,169.261 
		785.665,152.276 799.107,152.276 799.107,149.523 785.665,149.523 785.665,136.298 	"/>
	<polygon fill="#009CDD" points="828.612,136.354 828.612,133.547 803.109,133.547 803.109,136.354 814.173,136.354 
		814.173,169.261 817.557,169.261 817.557,136.354 	"/>
	<polygon fill="#009CDD" points="336.422,108.947 322.773,90.479 335.84,73.232 327.479,73.232 315.896,89.425 315.896,73.232 
		309.018,73.232 309.018,108.947 315.896,108.947 315.896,91.808 327.374,108.947 	"/>
	<g>
		<path fill="#009CDD" d="M362.925,91.115c0,8.574-4.975,12.173-9.63,12.173c-6.402,0-9.365-4.924-9.365-12.487
			c0-8.041,4.547-11.962,9.471-11.962C359.539,78.839,362.925,83.183,362.925,91.115 M370.277,90.591
			c0-12.226-6.718-17.935-16.242-17.935c-9.578,0-17.458,7.086-17.458,18.886c0,11.059,5.344,17.989,16.243,17.989
			C362.501,109.531,370.277,102.389,370.277,90.591"/>
		<path fill="#009CDD" d="M405.289,108.947V73.232h-6.667v11.115c0,4.39,0.108,10.736,0.37,14.335
			c-1.32-2.7-2.752-5.663-4.388-8.414l-9.948-17.036h-8.941v35.715h6.665V96.194c0-4.283-0.105-9.891-0.316-12.96
			c1.059,2.33,2.329,4.974,3.861,7.675l10.475,18.038H405.289z"/>
		<path fill="#009CDD" d="M433.43,97.892c0-11.162-15.028-8.785-15.028-15.187c0-2.537,2.013-4.34,5.979-4.34
			c2.171,0,4.388,0.37,6.4,0.951l0.37-6.029c-2.111-0.374-4.44-0.636-6.452-0.636c-8.57,0-13.599,4.395-13.599,10.746
			c0,11.743,14.977,8.62,14.977,15.444c0,3.281-2.701,4.709-6.192,4.709c-2.592,0-5.45-0.586-7.457-1.273l-0.424,6.401
			c2.218,0.586,4.76,0.85,7.301,0.85C428.085,109.528,433.43,104.607,433.43,97.892"/>
	</g>
	<polygon fill="#009CDD" points="460.028,79.109 460.028,73.235 434.634,73.235 434.634,79.109 443.892,79.109 443.892,108.947 
		450.767,108.947 450.767,79.109 	"/>
	<g>
		<path fill="#009CDD" d="M478.269,96.194h-9.941l3.225-9.096c0.688-2.063,1.273-4.132,1.694-5.981h0.052
			c0.421,2.009,0.955,3.758,1.643,5.711L478.269,96.194z M490.175,108.947l-12.749-35.715h-7.778l-12.486,35.715h6.931l2.49-7.302
			h13.488l2.489,7.302H490.175z"/>
		<path fill="#009CDD" d="M523.495,108.947V73.232h-6.666v11.115c0,4.39,0.104,10.736,0.37,14.335
			c-1.319-2.7-2.752-5.663-4.39-8.414l-9.946-17.036h-8.943v35.715h6.665V96.194c0-4.283-0.104-9.891-0.313-12.96
			c1.053,2.33,2.326,4.974,3.86,7.675l10.475,18.038H523.495z"/>
		<path fill="#009CDD" d="M553.275,108.947v-6.352h-7.723c-4.391,0-6.828,0-7.731,0.108c0.641-0.848,1.118-1.639,1.643-2.485
			l13.597-21.483v-5.503h-23.065v6.191h8.256c3.544,0,5.237-0.051,6.511-0.107c-0.852,1.113-1.591,2.172-2.331,3.389l-12.856,20.949
			v5.293H553.275z"/>
	</g>
	<polygon fill="#009CDD" points="337.904,48.633 337.904,12.922 331.026,12.922 331.026,27.206 315.893,27.206 315.893,12.922 
		309.015,12.922 309.015,48.633 315.893,48.633 315.893,33.132 331.026,33.132 331.026,48.633 	"/>
	<g>
		<path fill="#009CDD" d="M369.74,30.805c0,8.57-4.975,12.169-9.629,12.169c-6.402,0-9.365-4.923-9.365-12.486
			c0-8.041,4.549-11.953,9.47-11.953C366.354,18.534,369.74,22.869,369.74,30.805 M377.093,30.275
			c0-12.224-6.719-17.933-16.243-17.933c-9.576,0-17.457,7.089-17.457,18.883c0,11.061,5.34,17.992,16.243,17.992
			C369.317,49.218,377.093,42.075,377.093,30.275"/>
		<path fill="#009CDD" d="M406.708,47.522l-0.793-6.135c-1.853,0.842-4.762,1.482-6.929,1.482c-7.196,0-10.423-4.342-10.423-12.117
			c0-6.931,3.277-11.961,9.948-11.961c2.429,0,4.865,0.37,7.194,1.062l0.739-6.244c-2.329-0.632-5.028-0.95-7.563-0.95
			c-11.96,0-17.885,7.934-17.885,19.255c0,8.889,4.02,17.194,16.506,17.194C400.834,49.109,404.062,48.474,406.708,47.522"/>
	</g>
	<polygon fill="#009CDD" points="441.874,48.633 441.874,12.922 434.995,12.922 434.995,27.206 419.861,27.206 419.861,12.922 
		412.984,12.922 412.984,48.633 419.861,48.633 419.861,33.132 434.995,33.132 434.995,48.633 	"/>
	<g>
		<path fill="#009CDD" d="M470.061,37.577c0-11.161-15.028-8.784-15.028-15.187c0-2.536,2.013-4.339,5.977-4.339
			c2.176,0,4.395,0.369,6.407,0.95l0.369-6.023c-2.115-0.37-4.445-0.641-6.458-0.641c-8.565,0-13.596,4.394-13.596,10.745
			c0,11.743,14.972,8.621,14.972,15.445c0,3.28-2.695,4.712-6.188,4.712c-2.593,0-5.452-0.589-7.46-1.271l-0.422,6.396
			c2.219,0.586,4.76,0.848,7.302,0.848C464.716,49.213,470.061,44.294,470.061,37.577"/>
		<path fill="#009CDD" d="M499.939,47.522l-0.791-6.135c-1.857,0.842-4.764,1.482-6.932,1.482c-7.197,0-10.431-4.342-10.431-12.117
			c0-6.931,3.284-11.961,9.954-11.961c2.43,0,4.863,0.37,7.193,1.062l0.739-6.244c-2.33-0.632-5.026-0.95-7.563-0.95
			c-11.957,0-17.883,7.934-17.883,19.255c0,8.889,4.016,17.194,16.503,17.194C494.066,49.109,497.291,48.474,499.939,47.522"/>
	</g>
	<polygon fill="#009CDD" points="535.104,48.633 535.104,12.922 528.225,12.922 528.225,27.206 513.089,27.206 513.089,12.922 
		506.214,12.922 506.214,48.633 513.089,48.633 513.089,33.132 528.225,33.132 528.225,48.633 	"/>
	<g>
		<path fill="#009CDD" d="M572.125,34.774V12.919h-6.827v22.277c0,6.083-2.223,8.307-7.512,8.307c-5.926,0-7.409-3.174-7.409-7.676
			V12.919h-6.871v23.339c0,6.824,2.532,12.955,13.803,12.955C566.729,49.213,572.125,44.509,572.125,34.774"/>
	</g>
	<polygon fill="#009CDD" points="598.729,48.633 598.729,42.6 587.141,42.6 587.141,12.922 580.261,12.922 580.261,48.633 	"/>
	<polygon fill="#009CDD" points="622.374,48.633 622.374,42.759 609.835,42.759 609.835,33.075 621.737,33.075 621.737,27.473 
		609.835,27.473 609.835,18.689 622.374,18.689 622.374,12.922 602.956,12.922 602.956,48.633 	"/>
</g>
</svg>
